<mxfile host="app.diagrams.net" modified="2021-11-19T13:37:01.604Z" agent="5.0 (Macintosh; Intel Mac OS X 10_15_7) AppleWebKit/537.36 (KHTML, like Gecko) Chrome/93.0.4577.63 Safari/537.36" etag="5H9DGQstF94C1Lr0ZCF3" version="15.8.2" type="github">
  <diagram id="zzMti7SOtIHZldpWHezK" name="Page-1">
    <mxGraphModel dx="1426" dy="794" grid="0" gridSize="10" guides="1" tooltips="1" connect="1" arrows="1" fold="1" page="1" pageScale="1" pageWidth="827" pageHeight="1169" background="#FFFFFF" math="0" shadow="0">
      <root>
        <mxCell id="0" />
        <mxCell id="1" parent="0" />
        <mxCell id="9wo7LzbSve47M7MJEQEL-1" value="" style="rounded=0;whiteSpace=wrap;html=1;fillColor=#FFB366;fontSize=15;strokeWidth=1;" vertex="1" parent="1">
          <mxGeometry x="279" y="80" width="270" height="30" as="geometry" />
        </mxCell>
        <mxCell id="9wo7LzbSve47M7MJEQEL-14" value="" style="edgeStyle=elbowEdgeStyle;rounded=0;orthogonalLoop=1;jettySize=auto;elbow=vertical;html=1;entryX=0.5;entryY=1;entryDx=0;entryDy=0;dashed=1;fontSize=15;strokeWidth=2;" edge="1" parent="1">
          <mxGeometry relative="1" as="geometry">
            <mxPoint x="411" y="260" as="sourcePoint" />
            <mxPoint x="411" y="110" as="targetPoint" />
            <Array as="points">
              <mxPoint x="411" y="150" />
            </Array>
          </mxGeometry>
        </mxCell>
        <mxCell id="9wo7LzbSve47M7MJEQEL-2" value="" style="rounded=0;whiteSpace=wrap;html=1;fillColor=#FFB366;fontSize=15;strokeWidth=1;" vertex="1" parent="1">
          <mxGeometry x="279" y="260" width="270" height="30" as="geometry" />
        </mxCell>
        <mxCell id="9wo7LzbSve47M7MJEQEL-7" value="" style="edgeStyle=elbowEdgeStyle;rounded=0;orthogonalLoop=1;jettySize=auto;html=1;entryX=0.5;entryY=1;entryDx=0;entryDy=0;elbow=vertical;fontSize=15;strokeWidth=2;" edge="1" parent="1" source="9wo7LzbSve47M7MJEQEL-3">
          <mxGeometry relative="1" as="geometry">
            <mxPoint x="175" y="430" as="targetPoint" />
            <Array as="points">
              <mxPoint x="220" y="460" />
              <mxPoint x="190" y="470" />
              <mxPoint x="230" y="520" />
              <mxPoint x="230" y="465" />
              <mxPoint x="185" y="450" />
              <mxPoint x="210" y="465" />
              <mxPoint x="185" y="450" />
              <mxPoint x="220" y="470" />
            </Array>
          </mxGeometry>
        </mxCell>
        <mxCell id="9wo7LzbSve47M7MJEQEL-11" value="" style="edgeStyle=elbowEdgeStyle;rounded=0;orthogonalLoop=1;jettySize=auto;elbow=vertical;html=1;entryX=0.5;entryY=1;entryDx=0;entryDy=0;fontSize=15;strokeWidth=2;" edge="1" parent="1">
          <mxGeometry relative="1" as="geometry">
            <mxPoint x="411" y="450" as="sourcePoint" />
            <mxPoint x="411" y="290" as="targetPoint" />
          </mxGeometry>
        </mxCell>
        <mxCell id="9wo7LzbSve47M7MJEQEL-3" value="" style="rounded=0;whiteSpace=wrap;html=1;fillColor=#FFB366;fontSize=15;strokeWidth=1;" vertex="1" parent="1">
          <mxGeometry x="279" y="450" width="270" height="30" as="geometry" />
        </mxCell>
        <mxCell id="9wo7LzbSve47M7MJEQEL-5" value="" style="rounded=0;whiteSpace=wrap;html=1;fillColor=#4C0099;strokeColor=#9673a6;fontSize=15;strokeWidth=1;" vertex="1" parent="1">
          <mxGeometry x="160" y="120" width="30" height="130" as="geometry" />
        </mxCell>
        <mxCell id="9wo7LzbSve47M7MJEQEL-17" value="" style="endArrow=none;dashed=1;html=1;rounded=0;elbow=vertical;exitX=1;exitY=0.5;exitDx=0;exitDy=0;fontSize=15;strokeWidth=2;" edge="1" parent="1" source="9wo7LzbSve47M7MJEQEL-5">
          <mxGeometry width="50" height="50" relative="1" as="geometry">
            <mxPoint x="390" y="430" as="sourcePoint" />
            <mxPoint x="410" y="185" as="targetPoint" />
          </mxGeometry>
        </mxCell>
        <mxCell id="9wo7LzbSve47M7MJEQEL-18" value="" style="edgeStyle=elbowEdgeStyle;rounded=0;orthogonalLoop=1;jettySize=auto;html=1;entryX=0.5;entryY=1;entryDx=0;entryDy=0;elbow=vertical;dashed=1;fontSize=15;strokeWidth=2;" edge="1" parent="1">
          <mxGeometry relative="1" as="geometry">
            <mxPoint x="279" y="280" as="sourcePoint" />
            <mxPoint x="175" y="250" as="targetPoint" />
            <Array as="points">
              <mxPoint x="220" y="280" />
              <mxPoint x="190" y="290" />
              <mxPoint x="230" y="340" />
              <mxPoint x="230" y="285" />
              <mxPoint x="185" y="270" />
              <mxPoint x="210" y="285" />
              <mxPoint x="185" y="270" />
              <mxPoint x="220" y="290" />
            </Array>
          </mxGeometry>
        </mxCell>
        <mxCell id="9wo7LzbSve47M7MJEQEL-19" value="" style="endArrow=none;html=1;rounded=0;elbow=vertical;exitX=1;exitY=0.5;exitDx=0;exitDy=0;fontSize=15;strokeWidth=2;" edge="1" parent="1">
          <mxGeometry width="50" height="50" relative="1" as="geometry">
            <mxPoint x="190" y="370" as="sourcePoint" />
            <mxPoint x="410" y="370" as="targetPoint" />
          </mxGeometry>
        </mxCell>
        <mxCell id="9wo7LzbSve47M7MJEQEL-20" value="e&lt;sub style=&quot;font-size: 15px;&quot;&gt;0&lt;/sub&gt;" style="text;html=1;strokeColor=none;fillColor=none;align=center;verticalAlign=middle;whiteSpace=wrap;rounded=0;fontSize=15;strokeWidth=2;" vertex="1" parent="1">
          <mxGeometry x="400" y="405" width="60" height="30" as="geometry" />
        </mxCell>
        <mxCell id="9wo7LzbSve47M7MJEQEL-21" value="e&lt;span style=&quot;font-size: 15px;&quot;&gt;1&lt;/span&gt;" style="text;html=1;strokeColor=none;fillColor=none;align=center;verticalAlign=middle;whiteSpace=wrap;rounded=0;fontSize=15;strokeWidth=2;" vertex="1" parent="1">
          <mxGeometry x="400" y="222" width="60" height="30" as="geometry" />
        </mxCell>
        <mxCell id="9wo7LzbSve47M7MJEQEL-22" value=".&lt;br style=&quot;font-size: 15px;&quot;&gt;.&lt;br style=&quot;font-size: 15px;&quot;&gt;." style="text;html=1;strokeColor=none;fillColor=none;align=center;verticalAlign=middle;whiteSpace=wrap;rounded=0;fontSize=15;strokeWidth=2;" vertex="1" parent="1">
          <mxGeometry x="405" y="170" width="60" height="30" as="geometry" />
        </mxCell>
        <mxCell id="9wo7LzbSve47M7MJEQEL-23" style="edgeStyle=elbowEdgeStyle;rounded=0;orthogonalLoop=1;jettySize=auto;elbow=vertical;html=1;exitX=0;exitY=0.75;exitDx=0;exitDy=0;fillColor=#6a00ff;strokeColor=#3700CC;fontSize=15;strokeWidth=2;" edge="1" parent="1">
          <mxGeometry relative="1" as="geometry">
            <mxPoint x="160" y="397.5" as="sourcePoint" />
            <mxPoint x="160" y="398" as="targetPoint" />
          </mxGeometry>
        </mxCell>
        <mxCell id="9wo7LzbSve47M7MJEQEL-24" value="" style="rounded=0;whiteSpace=wrap;html=1;fillColor=#4C0099;strokeColor=#9673a6;fontSize=15;strokeWidth=1;" vertex="1" parent="1">
          <mxGeometry x="160" y="300" width="30" height="130" as="geometry" />
        </mxCell>
        <mxCell id="9wo7LzbSve47M7MJEQEL-25" value="e&lt;sub style=&quot;font-size: 15px;&quot;&gt;0&lt;/sub&gt;" style="text;html=1;strokeColor=none;fillColor=none;align=center;verticalAlign=middle;whiteSpace=wrap;rounded=0;fontSize=15;strokeWidth=2;" vertex="1" parent="1">
          <mxGeometry x="196" y="432" width="60" height="30" as="geometry" />
        </mxCell>
        <mxCell id="9wo7LzbSve47M7MJEQEL-26" value="e&lt;span style=&quot;font-size: 15px;&quot;&gt;1&lt;/span&gt;" style="text;html=1;strokeColor=none;fillColor=none;align=center;verticalAlign=middle;whiteSpace=wrap;rounded=0;fontSize=15;strokeWidth=2;" vertex="1" parent="1">
          <mxGeometry x="203" y="255" width="60" height="30" as="geometry" />
        </mxCell>
        <mxCell id="9wo7LzbSve47M7MJEQEL-27" value="i&lt;sub style=&quot;font-size: 15px;&quot;&gt;1&lt;/sub&gt;&lt;sup style=&quot;font-size: 15px;&quot;&gt;AL&lt;/sup&gt;" style="text;html=1;strokeColor=none;fillColor=none;align=center;verticalAlign=middle;whiteSpace=wrap;rounded=0;fontSize=15;strokeWidth=2;" vertex="1" parent="1">
          <mxGeometry x="247" y="337" width="60" height="30" as="geometry" />
        </mxCell>
        <mxCell id="9wo7LzbSve47M7MJEQEL-28" value="i&lt;sub style=&quot;font-size: 15px;&quot;&gt;2&lt;/sub&gt;&lt;sup style=&quot;font-size: 15px;&quot;&gt;AL&lt;/sup&gt;" style="text;html=1;strokeColor=none;fillColor=none;align=center;verticalAlign=middle;whiteSpace=wrap;rounded=0;fontSize=15;strokeWidth=2;" vertex="1" parent="1">
          <mxGeometry x="253" y="155" width="60" height="30" as="geometry" />
        </mxCell>
        <mxCell id="9wo7LzbSve47M7MJEQEL-29" value="Episode&lt;sub&gt;n&lt;/sub&gt;" style="text;html=1;strokeColor=none;fillColor=none;align=center;verticalAlign=middle;whiteSpace=wrap;rounded=0;fontSize=15;strokeWidth=2;" vertex="1" parent="1">
          <mxGeometry x="588" y="83" width="60" height="30" as="geometry" />
        </mxCell>
        <mxCell id="9wo7LzbSve47M7MJEQEL-30" value="Episode&lt;sub&gt;1&lt;/sub&gt;" style="text;html=1;strokeColor=none;fillColor=none;align=center;verticalAlign=middle;whiteSpace=wrap;rounded=0;fontSize=15;strokeWidth=2;" vertex="1" parent="1">
          <mxGeometry x="594" y="262" width="60" height="30" as="geometry" />
        </mxCell>
        <mxCell id="9wo7LzbSve47M7MJEQEL-31" value="Episode&lt;sub&gt;0&lt;/sub&gt;" style="text;html=1;strokeColor=none;fillColor=none;align=center;verticalAlign=middle;whiteSpace=wrap;rounded=0;fontSize=15;strokeWidth=2;" vertex="1" parent="1">
          <mxGeometry x="588" y="450" width="60" height="30" as="geometry" />
        </mxCell>
        <mxCell id="9wo7LzbSve47M7MJEQEL-32" value="Attention Layer" style="text;html=1;strokeColor=none;fillColor=none;align=center;verticalAlign=middle;whiteSpace=wrap;rounded=0;fontSize=15;strokeWidth=2;" vertex="1" parent="1">
          <mxGeometry x="75" y="170" width="60" height="30" as="geometry" />
        </mxCell>
        <mxCell id="9wo7LzbSve47M7MJEQEL-34" value="Attention Layer" style="text;html=1;strokeColor=none;fillColor=none;align=center;verticalAlign=middle;whiteSpace=wrap;rounded=0;fontSize=15;strokeWidth=2;" vertex="1" parent="1">
          <mxGeometry x="80" y="348" width="60" height="30" as="geometry" />
        </mxCell>
      </root>
    </mxGraphModel>
  </diagram>
</mxfile>
